<svg xmlns="http://www.w3.org/2000/svg" width="200" height="140" viewBox="0 0 200 140">
  <rect width="200" height="140" fill="#0b1120"/>
  <rect width="200" height="4" fill="#00c9c0"/>
  <!-- Journal label -->
  <text x="10" y="22" font-family="monospace" font-size="8" fill="#00c9c0" letter-spacing="1">ZENODO · SSRN PREPRINT</text>
  <text x="10" y="34" font-family="monospace" font-size="7" fill="#6b7a8d">2026</text>
  <!-- Graph / ontology motif: nodes + edges -->
  <g opacity="0.9">
    <!-- edges -->
    <g stroke="#00c9c0" stroke-width="0.6" opacity="0.45">
      <line x1="22" y1="52" x2="58" y2="42"/>
      <line x1="58" y1="42" x2="96" y2="55"/>
      <line x1="58" y1="42" x2="100" y2="40"/>
      <line x1="96" y1="55" x2="138" y2="46"/>
      <line x1="100" y1="40" x2="138" y2="46"/>
      <line x1="138" y1="46" x2="178" y2="52"/>
      <line x1="22" y1="52" x2="96" y2="55"/>
    </g>
    <!-- nodes -->
    <circle cx="58"  cy="42" r="3.2" fill="#c9a84c"/>
    <circle cx="138" cy="46" r="3.2" fill="#c9a84c"/>
    <circle cx="22"  cy="52" r="2.2" fill="#00c9c0"/>
    <circle cx="96"  cy="55" r="2.2" fill="#00c9c0"/>
    <circle cx="100" cy="40" r="2.2" fill="#00c9c0"/>
    <circle cx="178" cy="52" r="2.2" fill="#00c9c0"/>
  </g>
  <!-- Title -->
  <text x="10" y="78" font-family="serif" font-size="11" fill="#d6dde8" font-style="italic">Kontablo: Universal</text>
  <text x="10" y="93" font-family="serif" font-size="11" fill="#d6dde8" font-style="italic">Accounting Ontology</text>
  <!-- Bottom line -->
  <text x="10" y="118" font-family="monospace" font-size="7" fill="#6b7a8d">C. Luciani</text>
  <rect x="0" y="128" width="200" height="1" fill="#00c9c0" opacity="0.3"/>
  <text x="10" y="137" font-family="monospace" font-size="6" fill="#6b7a8d" opacity="0.6">doi.org/10.5281/zenodo.20738795</text>
</svg>
